<svg 
    xmlns="http://www.w3.org/2000/svg" 
    height="1190.35" width="520.38"
    viewBox="0 0 1190.35 520.38">
    <defs>
        <style>.cls-1{fill:#0092ff;}.cls-2{fill:none;stroke:#0092ff;stroke-miterlimit:10;stroke-width:1.53px;}</style>
    </defs>
    <title>Asset 3junc_bus_info1</title>
    <g id="Layer_2" data-name="Layer 2">
        <g id="Layer_3" data-name="Layer 3">
            <g id="Layer_2-2" data-name="Layer 2">
                <path class="cls-1" d="M884.35,1.36H902V6.25H889.7v6.6h9.82v4.81H889.7v6.4h13.08v4.85H884.35Z"/>
                <path class="cls-1" d="M925,17.66V28.91h-5.08v-10c0-3.61-1.28-4.73-3.65-4.73-2.56,0-4.31,1.79-4.31,5.16v9.55h-5.08V10h5.08v2.44H912A7.81,7.81,0,0,1,918,9.66C922.12,9.66,925,11.83,925,17.66Z"/>
                <path class="cls-1" d="M947,21.07H933.72a4.78,4.78,0,0,0,4.85,3.65,5.51,5.51,0,0,0,4.54-2.13l3.3,3.07a10.09,10.09,0,0,1-8.19,3.57,9.37,9.37,0,0,1-9.74-9.82c0-5.74,4-9.74,9.39-9.74,5.55,0,9.27,4,9.27,9.58A8.1,8.1,0,0,1,947,21.07Zm-13.27-3.65h8.34a4,4,0,0,0-4.07-3.3A4.19,4.19,0,0,0,933.76,17.42Z"/>
                <path class="cls-1" d="M962.19,9.7v5.51c-.5,0-1,0-1.32,0A4.58,4.58,0,0,0,956,20.1v8.81h-5.08V10H956v2.79h0a7,7,0,0,1,5.74-3.1A1.09,1.09,0,0,1,962.19,9.7Z"/>
                <path class="cls-1" d="M983.83,10V26.74c0,5.9-2.6,10.17-9.86,10.17a15.79,15.79,0,0,1-7.8-1.9l1.2-4.31a12,12,0,0,0,6.13,1.78c3.57,0,5.39-1.9,5.39-4.23v-1.9h-.12a7.24,7.24,0,0,1-5.51,2.21c-5.24,0-9-3.8-9-9.31s3.69-9.58,8.77-9.58a7.88,7.88,0,0,1,5.67,2.25h.12V10ZM979,19.05a4.79,4.79,0,0,0-9.58,0,4.79,4.79,0,1,0,9.58,0Z"/>
                <path class="cls-1" d="M1006.17,10,996,36.59h-5.2l3.34-8.85L986.58,10h5.28l4.66,11.72h0L1000.9,10Z"/>
                <path class="cls-1" d="M1037.14,21.07h-13.31a4.78,4.78,0,0,0,4.85,3.65,5.51,5.51,0,0,0,4.54-2.13l3.3,3.07a10.09,10.09,0,0,1-8.19,3.57,9.37,9.37,0,0,1-9.74-9.82c0-5.74,4-9.74,9.39-9.74,5.55,0,9.27,4,9.27,9.58A8.1,8.1,0,0,1,1037.14,21.07Zm-13.27-3.65h8.34a4,4,0,0,0-4.07-3.3A4.19,4.19,0,0,0,1023.87,17.42Z"/>
                <path class="cls-1" d="M1041.44,14.16h-2V10h2V6.71c0-4.42,2.21-6.71,6-6.71a8.93,8.93,0,0,1,4.89,1.4l-1,4a6.94,6.94,0,0,0-2.83-.81c-1.2,0-1.94.7-1.94,2.52V10h4.23v4.19h-4.23V28.91h-5.08Z"/>
                <path class="cls-1" d="M1055.05,14.16h-2V10h2V6.71c0-4.42,2.21-6.71,6-6.71a8.93,8.93,0,0,1,4.89,1.4l-1,4a6.94,6.94,0,0,0-2.83-.81c-1.2,0-1.94.7-1.94,2.52V10h4.23v4.19h-4.23V28.91h-5.08Z"/>
                <path class="cls-1" d="M1067.72,4.19a3.16,3.16,0,0,1,6.32,0,3.16,3.16,0,0,1-6.32,0Zm.58,5.78h5.08V28.91h-5.08Z"/>
                <path class="cls-1" d="M1077.14,19.44c0-5.82,4.11-9.78,10-9.78a10.23,10.23,0,0,1,8,3.61l-3.41,2.95a5.71,5.71,0,0,0-4.42-2,4.87,4.87,0,0,0-5,5.2,5,5,0,0,0,5.08,5.28,5.86,5.86,0,0,0,4.42-1.94l3.45,3.07a10.86,10.86,0,0,1-8.34,3.42A9.36,9.36,0,0,1,1077.14,19.44Z"/>
                <path class="cls-1" d="M1097.72,4.19a3.16,3.16,0,0,1,6.32,0,3.16,3.16,0,0,1-6.32,0Zm.58,5.78h5.08V28.91h-5.08Z"/>
                <path class="cls-1" d="M1125.69,21.07h-13.31a4.78,4.78,0,0,0,4.85,3.65,5.51,5.51,0,0,0,4.54-2.13l3.3,3.07a10.09,10.09,0,0,1-8.19,3.57,9.37,9.37,0,0,1-9.74-9.82c0-5.74,4-9.74,9.39-9.74,5.55,0,9.27,4,9.27,9.58A8.1,8.1,0,0,1,1125.69,21.07Zm-13.27-3.65h8.34a4,4,0,0,0-4.07-3.3A4.19,4.19,0,0,0,1112.42,17.42Z"/>
                <path class="cls-1" d="M1147.71,17.66V28.91h-5.08v-10c0-3.61-1.28-4.73-3.65-4.73-2.56,0-4.31,1.79-4.31,5.16v9.55h-5.08V10h5.08v2.44h.08a7.81,7.81,0,0,1,6.05-2.75C1144.88,9.66,1147.71,11.83,1147.71,17.66Z"/>
                <path class="cls-1" d="M1151.25,19.44c0-5.82,4.11-9.78,10-9.78a10.23,10.23,0,0,1,8,3.61l-3.41,2.95a5.71,5.71,0,0,0-4.42-2,4.87,4.87,0,0,0-5,5.2,5,5,0,0,0,5.08,5.28,5.86,5.86,0,0,0,4.42-1.94l3.45,3.07a10.86,10.86,0,0,1-8.34,3.42A9.36,9.36,0,0,1,1151.25,19.44Z"/>
                <path class="cls-1" d="M1190.35,10l-10.21,26.62H1175l3.34-8.85L1170.76,10H1176l4.66,11.72h0L1185.08,10Z"/>
                <path class="cls-1" d="M924.62,46.91h5.08V75.47h-5.08Z"/>
                <path class="cls-1" d="M953.23,56.53V75.47h-4.81V73.18h-.12a6.83,6.83,0,0,1-5.67,2.6c-5.24,0-9-3.88-9-9.74s3.84-9.82,8.92-9.82a7,7,0,0,1,5.55,2.44h.12V56.53Zm-4.85,9.55c0-3-2-5.32-4.77-5.32s-4.89,2.06-4.89,5.32c0,3.07,2,5.16,4.85,5.16A4.85,4.85,0,0,0,948.38,66.08Z"/>
                <path class="cls-1" d="M956.49,73,959,69.49a7.22,7.22,0,0,0,5.24,2.21c1.47,0,2.33-.62,2.33-1.55s-1-1.32-3.45-2.1c-3.1-1-5.82-2.52-5.82-6.17,0-3.41,2.95-5.67,6.83-5.67A10.53,10.53,0,0,1,971,58.59l-2.44,3.73a6.78,6.78,0,0,0-4.54-2c-.81,0-1.86.43-1.86,1.44,0,.78,1,1.32,2.87,2,4.11,1.51,6.52,2.41,6.52,6.13,0,3.38-2.41,5.9-7.37,5.9A11.5,11.5,0,0,1,956.49,73Z"/>
                <path class="cls-1" d="M975.79,69.49V60.73h-2.25V56.53h2.25V50.33l5-.54v6.75H986v4.19h-5.16V68.8c0,1.63.5,2.41,1.67,2.41a5.92,5.92,0,0,0,2.41-.66l1.32,4.07a9.44,9.44,0,0,1-5,1.16C977.93,75.78,975.79,73.76,975.79,69.49Z"/>
                <path class="cls-1" d="M1016.3,70.66v4.81H998.92L998.84,72l8.3-8.77c2.13-2.29,3.57-4.11,3.57-6.25a3.48,3.48,0,0,0-3.57-3.61,5.25,5.25,0,0,0-4.62,2.87l-3.8-2.72a9.54,9.54,0,0,1,8.85-5c4.42,0,8.46,2.95,8.46,7.92,0,3-1,5.39-4.42,9l-5,5.2v.08Z"/>
                <path class="cls-1" d="M1030.47,71.12h-11.29V67.75l12.22-18.94h4.27V66.58h3.57v4.54h-3.57v4.35h-5.2Zm.39-4.27V57.31l-5.94,9.55Z"/>
                <path class="cls-1" d="M1071.56,64.1V75.47h-5.08V65.38c0-3.49-1.28-4.62-3.69-4.62-2.72,0-4.46,1.71-4.46,5.08v9.62h-5.08V46.91h5.08V58.82h.08a8.06,8.06,0,0,1,6.17-2.6C1068.65,56.22,1071.56,58.32,1071.56,64.1Z"/>
                <path class="cls-1" d="M1075.09,66c0-5.67,4-9.78,10-9.78s10.09,4,10.09,9.78-4.19,9.78-10.09,9.78S1075.09,71.67,1075.09,66Zm15,0a4.94,4.94,0,1,0-9.86,0,4.94,4.94,0,1,0,9.86,0Z"/>
                <path class="cls-1" d="M1116.46,56.53V75.47h-5.08V73.14h-.08a7.21,7.21,0,0,1-5.63,2.64c-4.07,0-6.95-2.06-6.95-7.84V56.53h5V66.58c0,3.49,1,4.66,3.41,4.66,2.21,0,4.19-1.86,4.19-5.51v-9.2Z"/>
                <path class="cls-1" d="M1132.44,56.26v5.51c-.5,0-1,0-1.32,0a4.58,4.58,0,0,0-4.85,4.93v8.81h-5.08V56.53h5.08v2.79h0a7,7,0,0,1,5.74-3.1A1.08,1.08,0,0,1,1132.44,56.26Z"/>
                <path class="cls-1" d="M1134.13,73l2.48-3.53a7.22,7.22,0,0,0,5.24,2.21c1.47,0,2.33-.62,2.33-1.55s-1-1.32-3.45-2.1c-3.1-1-5.82-2.52-5.82-6.17,0-3.41,2.95-5.67,6.83-5.67a10.53,10.53,0,0,1,6.91,2.37l-2.44,3.73a6.78,6.78,0,0,0-4.54-2c-.81,0-1.86.43-1.86,1.44,0,.78,1,1.32,2.87,2,4.11,1.51,6.52,2.41,6.52,6.13,0,3.38-2.41,5.9-7.37,5.9A11.5,11.5,0,0,1,1134.13,73Z"/>
                <path class="cls-1" d="M29.82,495.39,23,517h-4l-4-15.35h-.09L10.73,517H6.81L0,495.39H4.56L8.75,510h.06l3.83-14.59h4.53L21,510h0l4.23-14.59Z"/>
                <path class="cls-1" d="M46.78,508.07V517h-4v-7.9c0-2.74-1-3.62-2.89-3.62-2.13,0-3.5,1.34-3.5,4V517h-4V494.6h4v9.33h.06a6.31,6.31,0,0,1,4.83-2C44.5,501.9,46.78,503.54,46.78,508.07Z"/>
                <path class="cls-1" d="M48,519l11.61-26,2.95,1.37L51,520.38Z"/>
                <path class="cls-1" d="M70.61,511.08l-2.07,2.34V517h-4V494.6h4v13.53h0l5.32-6h4.65L73.32,508,78.64,517H74.2l-3.53-5.9Z"/>
                <path class="cls-1" d="M104.14,508.34V517h-4v-7.66c0-2.37-.73-3.86-2.58-3.86-1.67,0-3,1.43-3,4.1V517h-4v-7.66c0-2.37-.76-3.86-2.61-3.86s-3.13,1.43-3.13,4.1V517h-4V502.14h4v2h0a5.63,5.63,0,0,1,4.44-2.22,4.68,4.68,0,0,1,4.41,2.37h.06a6.35,6.35,0,0,1,5.17-2.37C102.13,501.9,104.14,503.81,104.14,508.34Z"/>
                <rect class="cls-1" x="135.9" y="116.96" width="1.53" height="400.01"/>
                <line class="cls-2" x1="115.15" y1="116.96" x2="136.67" y2="116.96"/>
                <line class="cls-2" x1="115.15" y1="216.96" x2="136.67" y2="216.96"/>
                <line class="cls-2" x1="115.15" y1="316.96" x2="136.67" y2="316.96"/>
                <line class="cls-2" x1="115.15" y1="416.97" x2="136.67" y2="416.97"/>
                <line class="cls-2" x1="115.15" y1="516.97" x2="136.67" y2="516.97"/>
            </g>
        </g>
    </g>
</svg>