<svg 
    xmlns="http://www.w3.org/2000/svg" 
    width="10868.06" height="561.12"
    viewBox="0 0 10868.06 561.12">
    <defs>
        <style>.cls-1{fill:#c3d3e7;}.cls-2{fill:#0092ff;}</style>
    </defs>
    <title>Asset 4junc_bus_info1</title>
    <g id="Layer_2" data-name="Layer 2">
        <g id="Layer_3" data-name="Layer 3">
            <g id="Layer_2-2" data-name="Layer 2">
                <path class="cls-1" d="M2980,109.26l-6.17-9.43h-3.18v9.43h-5.39V81.71h10.44c6.64,0,9.58,3.88,9.58,9.16,0,4.42-2.13,7.14-5.67,8.3l6.83,10.09ZM2970.66,95h3.8c3.38,0,5.2-1.71,5.2-4.27s-1.78-4.19-5-4.19h-4Z"/>
                <path class="cls-1" d="M3007.18,90.32v18.94h-5.08v-2.33H3002a7.21,7.21,0,0,1-5.63,2.64c-4.07,0-6.95-2.06-6.95-7.84V90.32h5v10.05c0,3.49,1,4.66,3.41,4.66,2.21,0,4.19-1.86,4.19-5.51v-9.2Z"/>
                <path class="cls-1" d="M3010.44,106.81l2.48-3.53a7.22,7.22,0,0,0,5.24,2.21c1.47,0,2.33-.62,2.33-1.55s-1-1.32-3.45-2.1c-3.1-1-5.82-2.52-5.82-6.17,0-3.41,2.95-5.67,6.83-5.67a10.53,10.53,0,0,1,6.91,2.37l-2.44,3.73a6.78,6.78,0,0,0-4.54-2c-.81,0-1.86.43-1.86,1.44,0,.78,1,1.32,2.87,2,4.11,1.51,6.52,2.41,6.52,6.13,0,3.38-2.41,5.9-7.37,5.9A11.5,11.5,0,0,1,3010.44,106.81Z"/>
                <path class="cls-1" d="M3047.48,97.89v11.37h-5.08V99.17c0-3.49-1.28-4.62-3.69-4.62-2.72,0-4.46,1.71-4.46,5.08v9.62h-5.08V80.7h5.08V92.61h.08a8.06,8.06,0,0,1,6.17-2.6C3044.57,90,3047.48,92.11,3047.48,97.89Z"/>
                <path class="cls-1" d="M3080.85,97.89v11.37h-5.08V99.17c0-3.49-1.28-4.62-3.69-4.62-2.72,0-4.46,1.71-4.46,5.08v9.62h-5.08V80.7h5.08V92.61h.08a8.06,8.06,0,0,1,6.17-2.6C3077.94,90,3080.85,92.11,3080.85,97.89Z"/>
                <path class="cls-1" d="M3084.38,99.79c0-5.67,4-9.78,10-9.78s10.09,4,10.09,9.78-4.19,9.78-10.09,9.78S3084.38,105.45,3084.38,99.79Zm15,0a4.94,4.94,0,1,0-9.86,0,4.94,4.94,0,1,0,9.86,0Z"/>
                <path class="cls-1" d="M3125.75,90.32v18.94h-5.08v-2.33h-.08a7.21,7.21,0,0,1-5.63,2.64c-4.07,0-6.95-2.06-6.95-7.84V90.32h5v10.05c0,3.49,1,4.66,3.41,4.66,2.21,0,4.19-1.86,4.19-5.51v-9.2Z"/>
                <path class="cls-1" d="M3141.73,90v5.51c-.5,0-1,0-1.32,0a4.58,4.58,0,0,0-4.85,4.93v8.81h-5.08V90.32h5.08v2.79h0a7,7,0,0,1,5.74-3.1A1.09,1.09,0,0,1,3141.73,90Z"/>
                <path class="cls-1" d="M7259.5,109.26l-6.17-9.43h-3.18v9.43h-5.39V81.71h10.44c6.64,0,9.58,3.88,9.58,9.16,0,4.42-2.13,7.14-5.67,8.3l6.83,10.09ZM7250.15,95h3.8c3.38,0,5.2-1.71,5.2-4.27s-1.78-4.19-5-4.19h-4Z"/>
                <path class="cls-1" d="M7286.68,90.32v18.94h-5.08v-2.33h-.08a7.21,7.21,0,0,1-5.63,2.64c-4.07,0-6.95-2.06-6.95-7.84V90.32h5v10.05c0,3.49,1,4.66,3.41,4.66,2.21,0,4.19-1.86,4.19-5.51v-9.2Z"/>
                <path class="cls-1" d="M7289.93,106.81l2.48-3.53a7.22,7.22,0,0,0,5.24,2.21c1.47,0,2.33-.62,2.33-1.55s-1-1.32-3.45-2.1c-3.1-1-5.82-2.52-5.82-6.17,0-3.41,2.95-5.67,6.83-5.67a10.53,10.53,0,0,1,6.91,2.37L7302,96.1a6.78,6.78,0,0,0-4.54-2c-.81,0-1.86.43-1.86,1.44,0,.78,1,1.32,2.87,2,4.11,1.51,6.52,2.41,6.52,6.13,0,3.38-2.41,5.9-7.37,5.9A11.5,11.5,0,0,1,7289.93,106.81Z"/>
                <path class="cls-1" d="M7327,97.89v11.37h-5.08V99.17c0-3.49-1.28-4.62-3.69-4.62-2.72,0-4.46,1.71-4.46,5.08v9.62h-5.08V80.7h5.08V92.61h.08A8.06,8.06,0,0,1,7320,90C7324.06,90,7327,92.11,7327,97.89Z"/>
                <path class="cls-1" d="M7360.34,97.89v11.37h-5.08V99.17c0-3.49-1.28-4.62-3.69-4.62-2.72,0-4.46,1.71-4.46,5.08v9.62H7342V80.7h5.08V92.61h.08a8.06,8.06,0,0,1,6.17-2.6C7357.43,90,7360.34,92.11,7360.34,97.89Z"/>
                <path class="cls-1" d="M7363.87,99.79c0-5.67,4-9.78,10-9.78S7384,94,7384,99.79s-4.19,9.78-10.09,9.78S7363.87,105.45,7363.87,99.79Zm15,0a4.94,4.94,0,1,0-9.86,0,4.94,4.94,0,1,0,9.86,0Z"/>
                <path class="cls-1" d="M7405.24,90.32v18.94h-5.08v-2.33h-.08a7.21,7.21,0,0,1-5.63,2.64c-4.07,0-6.95-2.06-6.95-7.84V90.32h5v10.05c0,3.49,1,4.66,3.41,4.66,2.21,0,4.19-1.86,4.19-5.51v-9.2Z"/>
                <path class="cls-1" d="M7421.22,90v5.51c-.5,0-1,0-1.32,0a4.58,4.58,0,0,0-4.85,4.93v8.81H7410V90.32H7415v2.79h0a7,7,0,0,1,5.74-3.1A1.09,1.09,0,0,1,7421.22,90Z"/>
                <path class="cls-2" d="M901.93,541.9c0-10.71,5.15-18,13.62-18,8.16,0,13.67,6.63,13.67,18,0,10.71-5.15,17.9-13.67,17.9C907.49,559.8,901.93,553.22,901.93,541.9Zm20.19,0c0-7.09-2.4-11.47-6.53-11.47s-6.58,4-6.58,11.47c0,7,2.45,11.47,6.58,11.47S922.12,549.29,922.12,541.9Z"/>
                <path class="cls-2" d="M955.24,553.06v6.32H932.39l-.1-4.54,10.91-11.52c2.8-3,4.69-5.41,4.69-8.21a4.57,4.57,0,0,0-4.69-4.74,6.9,6.9,0,0,0-6.07,3.77l-5-3.57a12.54,12.54,0,0,1,11.63-6.63c5.81,0,11.12,3.88,11.12,10.4,0,4-1.27,7.09-5.81,11.78L942.44,553v.1Z"/>
                <path class="cls-2" d="M961.27,555.77a4.13,4.13,0,1,1,4.13,4A4.06,4.06,0,0,1,961.27,555.77Z"/>
                <path class="cls-2" d="M973.38,541.9c0-10.71,5.15-18,13.62-18,8.16,0,13.67,6.63,13.67,18,0,10.71-5.15,17.9-13.67,17.9C978.93,559.8,973.38,553.22,973.38,541.9Zm20.19,0c0-7.09-2.4-11.47-6.53-11.47s-6.58,4-6.58,11.47c0,7,2.45,11.47,6.58,11.47S993.57,549.29,993.57,541.9Z"/>
                <path class="cls-2" d="M1005.36,541.9c0-10.71,5.15-18,13.62-18,8.16,0,13.67,6.63,13.67,18,0,10.71-5.15,17.9-13.67,17.9C1010.92,559.8,1005.36,553.22,1005.36,541.9Zm20.19,0c0-7.09-2.4-11.47-6.53-11.47s-6.58,4-6.58,11.47c0,7,2.45,11.47,6.58,11.47S1025.56,549.29,1025.56,541.9Z"/>
                <path class="cls-2" d="M1351.91,541.9c0-10.71,5.15-18,13.62-18,8.16,0,13.67,6.63,13.67,18,0,10.71-5.15,17.9-13.67,17.9C1357.47,559.8,1351.91,553.22,1351.91,541.9Zm20.19,0c0-7.09-2.4-11.47-6.53-11.47s-6.58,4-6.58,11.47c0,7,2.45,11.47,6.58,11.47S1372.11,549.29,1372.11,541.9Z"/>
                <path class="cls-2" d="M1406.3,549.85c0,6.07-5,9.94-11.83,9.94-6.22,0-10.86-3.26-12.54-7.7l6-2.5c.92,2.5,2.86,4,6,4,2.81,0,5.2-1.73,5.2-4.69,0-2.5-1.94-4.64-5.76-4.64h-2.55v-5.66H1394c3.11,0,4.54-1.84,4.54-4.13,0-2.55-2-4.23-4.64-4.23a5.39,5.39,0,0,0-5.1,2.91l-5.56-3c1.63-3.62,5.66-6.22,10.81-6.22,6.22,0,11.27,3.37,11.27,9.38a8.94,8.94,0,0,1-4.54,7.85v.1A9.09,9.09,0,0,1,1406.3,549.85Z"/>
                <path class="cls-2" d="M1411.29,555.77a4.13,4.13,0,1,1,4.13,4A4.06,4.06,0,0,1,1411.29,555.77Z"/>
                <path class="cls-2" d="M1423.39,541.9c0-10.71,5.15-18,13.62-18,8.16,0,13.67,6.63,13.67,18,0,10.71-5.15,17.9-13.67,17.9C1429,559.8,1423.39,553.22,1423.39,541.9Zm20.19,0c0-7.09-2.4-11.47-6.53-11.47s-6.58,4-6.58,11.47c0,7,2.45,11.47,6.58,11.47S1443.59,549.29,1443.59,541.9Z"/>
                <path class="cls-2" d="M1455.38,541.9c0-10.71,5.15-18,13.62-18,8.16,0,13.67,6.63,13.67,18,0,10.71-5.15,17.9-13.67,17.9C1460.94,559.8,1455.38,553.22,1455.38,541.9Zm20.19,0c0-7.09-2.4-11.47-6.53-11.47s-6.58,4-6.58,11.47c0,7,2.45,11.47,6.58,11.47S1475.57,549.29,1475.57,541.9Z"/>
                <path class="cls-2" d="M1800.69,541.9c0-10.71,5.15-18,13.62-18,8.16,0,13.67,6.63,13.67,18,0,10.71-5.15,17.9-13.67,17.9C1806.25,559.8,1800.69,553.22,1800.69,541.9Zm20.19,0c0-7.09-2.4-11.47-6.53-11.47s-6.58,4-6.58,11.47c0,7,2.45,11.47,6.58,11.47S1820.89,549.29,1820.89,541.9Z"/>
                <path class="cls-2" d="M1846.16,553.68h-14.84v-4.44l16.06-24.89H1853v23.36h4.69v6H1853v5.71h-6.83Zm.51-5.61V535.52l-7.8,12.54Z"/>
                <path class="cls-2" d="M1862.5,555.77a4.13,4.13,0,1,1,4.13,4A4.06,4.06,0,0,1,1862.5,555.77Z"/>
                <path class="cls-2" d="M1874.61,541.9c0-10.71,5.15-18,13.62-18,8.16,0,13.67,6.63,13.67,18,0,10.71-5.15,17.9-13.67,17.9C1880.17,559.8,1874.61,553.22,1874.61,541.9Zm20.19,0c0-7.09-2.4-11.47-6.53-11.47s-6.58,4-6.58,11.47c0,7,2.45,11.47,6.58,11.47S1894.81,549.29,1894.81,541.9Z"/>
                <path class="cls-2" d="M1906.6,541.9c0-10.71,5.15-18,13.62-18,8.16,0,13.67,6.63,13.67,18,0,10.71-5.15,17.9-13.67,17.9C1912.16,559.8,1906.6,553.22,1906.6,541.9Zm20.19,0c0-7.09-2.4-11.47-6.53-11.47s-6.58,4-6.58,11.47c0,7,2.45,11.47,6.58,11.47S1926.79,549.29,1926.79,541.9Z"/>
                <path class="cls-2" d="M2253,541.9c0-10.71,5.15-18,13.62-18,8.16,0,13.67,6.63,13.67,18,0,10.71-5.15,17.9-13.67,17.9C2258.6,559.8,2253,553.22,2253,541.9Zm20.19,0c0-7.09-2.4-11.47-6.53-11.47s-6.58,4-6.58,11.47c0,7,2.45,11.47,6.58,11.47S2273.24,549.29,2273.24,541.9Z"/>
                <path class="cls-2" d="M2308,548.07c0,6.94-5.46,11.73-12.54,11.73a15,15,0,0,1-12.09-5.51l5-4a8.13,8.13,0,0,0,6.73,3.21A5.57,5.57,0,0,0,2301,548c0-3.67-3.16-5.51-6-5.51a7.91,7.91,0,0,0-5.25,1.78l-3.67-1.38,1.07-18.51h19.12v6.32h-13.11l-.41,6.88a15.54,15.54,0,0,1,4.39-.77C2303.1,536.8,2308,541.13,2308,548.07Z"/>
                <path class="cls-2" d="M2312.8,555.77a4.13,4.13,0,1,1,4.13,4A4.06,4.06,0,0,1,2312.8,555.77Z"/>
                <path class="cls-2" d="M2324.91,541.9c0-10.71,5.15-18,13.62-18,8.16,0,13.67,6.63,13.67,18,0,10.71-5.15,17.9-13.67,17.9C2330.46,559.8,2324.91,553.22,2324.91,541.9Zm20.19,0c0-7.09-2.4-11.47-6.53-11.47s-6.58,4-6.58,11.47c0,7,2.45,11.47,6.58,11.47S2345.1,549.29,2345.1,541.9Z"/>
                <path class="cls-2" d="M2356.89,541.9c0-10.71,5.15-18,13.62-18,8.16,0,13.67,6.63,13.67,18,0,10.71-5.15,17.9-13.67,17.9C2362.45,559.8,2356.89,553.22,2356.89,541.9Zm20.19,0c0-7.09-2.4-11.47-6.53-11.47s-6.58,4-6.58,11.47c0,7,2.45,11.47,6.58,11.47S2377.09,549.29,2377.09,541.9Z"/>
                <path class="cls-2" d="M2701.61,542.36c0-10.71,5.15-18,13.62-18,8.16,0,13.67,6.63,13.67,18,0,10.71-5.15,17.9-13.67,17.9C2707.16,560.26,2701.61,553.68,2701.61,542.36Zm20.19,0c0-7.09-2.4-11.47-6.53-11.47s-6.58,4-6.58,11.47c0,7,2.45,11.47,6.58,11.47S2721.8,549.75,2721.8,542.36Z"/>
                <path class="cls-2" d="M2758.53,548.68c0,6.88-5.46,11.58-12.65,11.58s-12.6-5.61-12.6-14a22.24,22.24,0,0,1,18.51-22.44l2,5.56c-6.27,1.79-10.5,4.69-12.54,9.69h.05a13.27,13.27,0,0,1,6.48-1.63C2753.63,537.41,2758.53,541.44,2758.53,548.68Zm-6.78-.15c0-3.06-2.24-5.3-5.76-5.3a8.18,8.18,0,0,0-6.07,3.11v.51c0,4.33,2.75,7.19,6.17,7.19A5.49,5.49,0,0,0,2751.75,548.53Z"/>
                <path class="cls-2" d="M2763.25,556.23a4.13,4.13,0,1,1,4.13,4A4.06,4.06,0,0,1,2763.25,556.23Z"/>
                <path class="cls-2" d="M2775.36,542.36c0-10.71,5.15-18,13.62-18,8.16,0,13.67,6.63,13.67,18,0,10.71-5.15,17.9-13.67,17.9C2780.92,560.26,2775.36,553.68,2775.36,542.36Zm20.19,0c0-7.09-2.4-11.47-6.53-11.47s-6.58,4-6.58,11.47c0,7,2.45,11.47,6.58,11.47S2795.56,549.75,2795.56,542.36Z"/>
                <path class="cls-2" d="M2807.35,542.36c0-10.71,5.15-18,13.62-18,8.16,0,13.67,6.63,13.67,18,0,10.71-5.15,17.9-13.67,17.9C2812.91,560.26,2807.35,553.68,2807.35,542.36Zm20.19,0c0-7.09-2.4-11.47-6.53-11.47s-6.58,4-6.58,11.47c0,7,2.45,11.47,6.58,11.47S2827.54,549.75,2827.54,542.36Z"/>
                <path class="cls-2" d="M3156.34,542.36c0-10.71,5.15-18,13.62-18,8.16,0,13.67,6.63,13.67,18,0,10.71-5.15,17.9-13.67,17.9C3161.9,560.26,3156.34,553.68,3156.34,542.36Zm20.19,0c0-7.09-2.4-11.47-6.53-11.47s-6.58,4-6.58,11.47c0,7,2.45,11.47,6.58,11.47S3176.53,549.75,3176.53,542.36Z"/>
                <path class="cls-2" d="M3208,524.81v4.54l-12.19,31.26-6.88-1.27,11.47-28.25h-14.18v-6.27Z"/>
                <path class="cls-2" d="M3208.52,556.23a4.13,4.13,0,1,1,4.13,4A4.06,4.06,0,0,1,3208.52,556.23Z"/>
                <path class="cls-2" d="M3220.63,542.36c0-10.71,5.15-18,13.62-18,8.16,0,13.67,6.63,13.67,18,0,10.71-5.15,17.9-13.67,17.9C3226.18,560.26,3220.63,553.68,3220.63,542.36Zm20.19,0c0-7.09-2.4-11.47-6.53-11.47s-6.58,4-6.58,11.47c0,7,2.45,11.47,6.58,11.47S3240.82,549.75,3240.82,542.36Z"/>
                <path class="cls-2" d="M3252.61,542.36c0-10.71,5.15-18,13.62-18,8.16,0,13.67,6.63,13.67,18,0,10.71-5.15,17.9-13.67,17.9C3258.17,560.26,3252.61,553.68,3252.61,542.36Zm20.19,0c0-7.09-2.4-11.47-6.53-11.47s-6.58,4-6.58,11.47c0,7,2.45,11.47,6.58,11.47S3272.81,549.75,3272.81,542.36Z"/>
                <path class="cls-2" d="M3601.66,542.36c0-10.71,5.15-18,13.62-18,8.16,0,13.67,6.63,13.67,18,0,10.71-5.15,17.9-13.67,17.9C3607.22,560.26,3601.66,553.68,3601.66,542.36Zm20.19,0c0-7.09-2.4-11.47-6.53-11.47s-6.58,4-6.58,11.47c0,7,2.45,11.47,6.58,11.47S3621.86,549.75,3621.86,542.36Z"/>
                <path class="cls-2" d="M3658.38,550.16c0,6.27-5.61,10.1-12.75,10.1s-12.65-4-12.65-10.1a9.37,9.37,0,0,1,6.17-9.23v-.1a8,8,0,0,1-4.39-7.29c0-5.92,4.79-9.13,10.86-9.13,6.32,0,10.91,3.37,10.91,9.13,0,3.57-2.19,6.43-4.39,7.29v.1A9.41,9.41,0,0,1,3658.38,550.16Zm-7.09-.92c0-3-2.29-5.1-5.66-5.1s-5.66,2.14-5.66,5.1,2.5,5.1,5.66,5.1C3649,554.34,3651.29,552,3651.29,549.24Zm-10.1-15c0,2.29,1.84,3.93,4.44,3.93s4.49-1.63,4.49-3.93a4.48,4.48,0,0,0-8.92,0Z"/>
                <path class="cls-2" d="M3663.2,556.23a4.13,4.13,0,1,1,4.13,4A4.06,4.06,0,0,1,3663.2,556.23Z"/>
                <path class="cls-2" d="M3675.3,542.36c0-10.71,5.15-18,13.62-18,8.16,0,13.67,6.63,13.67,18,0,10.71-5.15,17.9-13.67,17.9C3680.86,560.26,3675.3,553.68,3675.3,542.36Zm20.19,0c0-7.09-2.4-11.47-6.53-11.47s-6.58,4-6.58,11.47c0,7,2.45,11.47,6.58,11.47S3695.5,549.75,3695.5,542.36Z"/>
                <path class="cls-2" d="M3707.29,542.36c0-10.71,5.15-18,13.62-18,8.16,0,13.67,6.63,13.67,18,0,10.71-5.15,17.9-13.67,17.9C3712.85,560.26,3707.29,553.68,3707.29,542.36Zm20.19,0c0-7.09-2.4-11.47-6.53-11.47s-6.58,4-6.58,11.47c0,7,2.45,11.47,6.58,11.47S3727.49,549.75,3727.49,542.36Z"/>
                <path class="cls-2" d="M4054.36,542.36c0-10.71,5.15-18,13.62-18,8.16,0,13.67,6.63,13.67,18,0,10.71-5.15,17.9-13.67,17.9C4059.92,560.26,4054.36,553.68,4054.36,542.36Zm20.19,0c0-7.09-2.4-11.47-6.53-11.47s-6.58,4-6.58,11.47c0,7,2.45,11.47,6.58,11.47S4074.56,549.75,4074.56,542.36Z"/>
                <path class="cls-2" d="M4110.78,538.48a22.55,22.55,0,0,1-18.71,22.64l-2-5.61c6.37-1.73,10.71-4.74,12.8-9.79l-.05-.05a13.61,13.61,0,0,1-6.53,1.63c-5.81,0-10.66-4.08-10.66-11.22,0-6.94,5.46-11.68,12.54-11.68C4105.43,524.41,4110.78,530.07,4110.78,538.48Zm-12.7,3a8.18,8.18,0,0,0,6.07-3.11v-.46c0-4.39-2.55-7.24-5.92-7.24a5.54,5.54,0,0,0-5.86,5.51C4092.37,539.3,4094.51,541.49,4098.08,541.49Z"/>
                <path class="cls-2" d="M4113.14,556.23a4.13,4.13,0,1,1,4.13,4A4.06,4.06,0,0,1,4113.14,556.23Z"/>
                <path class="cls-2" d="M4125.25,542.36c0-10.71,5.15-18,13.62-18,8.16,0,13.67,6.63,13.67,18,0,10.71-5.15,17.9-13.67,17.9C4130.81,560.26,4125.25,553.68,4125.25,542.36Zm20.19,0c0-7.09-2.4-11.47-6.53-11.47s-6.58,4-6.58,11.47c0,7,2.45,11.47,6.58,11.47S4145.44,549.75,4145.44,542.36Z"/>
                <path class="cls-2" d="M4157.23,542.36c0-10.71,5.15-18,13.62-18,8.16,0,13.67,6.63,13.67,18,0,10.71-5.15,17.9-13.67,17.9C4162.79,560.26,4157.23,553.68,4157.23,542.36Zm20.19,0c0-7.09-2.4-11.47-6.53-11.47s-6.58,4-6.58,11.47c0,7,2.45,11.47,6.58,11.47S4177.43,549.75,4177.43,542.36Z"/>
                <path class="cls-2" d="M4512.85,533.18l-5.86,4.39-3.31-5.15,10.61-7.6h5.56v35h-7Z"/>
                <path class="cls-2" d="M4526.16,542.36c0-10.71,5.15-18,13.62-18,8.16,0,13.67,6.63,13.67,18,0,10.71-5.15,17.9-13.67,17.9C4531.72,560.26,4526.16,553.68,4526.16,542.36Zm20.19,0c0-7.09-2.4-11.47-6.53-11.47s-6.58,4-6.58,11.47c0,7,2.45,11.47,6.58,11.47S4546.36,549.75,4546.36,542.36Z"/>
                <path class="cls-2" d="M4557.38,556.23a4.13,4.13,0,1,1,4.13,4A4.06,4.06,0,0,1,4557.38,556.23Z"/>
                <path class="cls-2" d="M4569.48,542.36c0-10.71,5.15-18,13.62-18,8.16,0,13.67,6.63,13.67,18,0,10.71-5.15,17.9-13.67,17.9C4575,560.26,4569.48,553.68,4569.48,542.36Zm20.19,0c0-7.09-2.4-11.47-6.53-11.47s-6.58,4-6.58,11.47c0,7,2.45,11.47,6.58,11.47S4589.68,549.75,4589.68,542.36Z"/>
                <path class="cls-2" d="M4601.47,542.36c0-10.71,5.15-18,13.62-18,8.16,0,13.67,6.63,13.67,18,0,10.71-5.15,17.9-13.67,17.9C4607,560.26,4601.47,553.68,4601.47,542.36Zm20.19,0c0-7.09-2.4-11.47-6.53-11.47s-6.58,4-6.58,11.47c0,7,2.45,11.47,6.58,11.47S4621.66,549.75,4621.66,542.36Z"/>
                <path class="cls-2" d="M5415.11,533.18l-5.86,4.39-3.31-5.15,10.61-7.6h5.56v35h-7Z"/>
                <path class="cls-2" d="M5450.41,553.52v6.32h-22.85l-.1-4.54,10.91-11.52c2.8-3,4.69-5.41,4.69-8.21a4.57,4.57,0,0,0-4.69-4.74,6.9,6.9,0,0,0-6.07,3.77l-5-3.57a12.54,12.54,0,0,1,11.63-6.63c5.81,0,11.12,3.88,11.12,10.4,0,4-1.27,7.09-5.81,11.78l-6.63,6.83v.1Z"/>
                <path class="cls-2" d="M5456.44,556.23a4.13,4.13,0,1,1,4.13,4A4.06,4.06,0,0,1,5456.44,556.23Z"/>
                <path class="cls-2" d="M5468.55,542.36c0-10.71,5.15-18,13.62-18,8.16,0,13.67,6.63,13.67,18,0,10.71-5.15,17.9-13.67,17.9C5474.1,560.26,5468.55,553.68,5468.55,542.36Zm20.19,0c0-7.09-2.4-11.47-6.53-11.47s-6.58,4-6.58,11.47c0,7,2.45,11.47,6.58,11.47S5488.74,549.75,5488.74,542.36Z"/>
                <path class="cls-2" d="M5500.53,542.36c0-10.71,5.15-18,13.62-18,8.16,0,13.67,6.63,13.67,18,0,10.71-5.15,17.9-13.67,17.9C5506.09,560.26,5500.53,553.68,5500.53,542.36Zm20.19,0c0-7.09-2.4-11.47-6.53-11.47s-6.58,4-6.58,11.47c0,7,2.45,11.47,6.58,11.47S5520.73,549.75,5520.73,542.36Z"/>
                <path class="cls-2" d="M4968.2,533.18l-5.86,4.39-3.31-5.15,10.61-7.6h5.56v35h-7Z"/>
                <path class="cls-2" d="M4988.53,533.18l-5.86,4.39-3.31-5.15,10.61-7.6h5.56v35h-7Z"/>
                <path class="cls-2" d="M5002.44,556.23a4.13,4.13,0,1,1,4.13,4A4.06,4.06,0,0,1,5002.44,556.23Z"/>
                <path class="cls-2" d="M5014.55,542.36c0-10.71,5.15-18,13.62-18,8.16,0,13.67,6.63,13.67,18,0,10.71-5.15,17.9-13.67,17.9C5020.11,560.26,5014.55,553.68,5014.55,542.36Zm20.19,0c0-7.09-2.4-11.47-6.53-11.47s-6.58,4-6.58,11.47c0,7,2.45,11.47,6.58,11.47S5034.74,549.75,5034.74,542.36Z"/>
                <path class="cls-2" d="M5046.54,542.36c0-10.71,5.15-18,13.62-18,8.16,0,13.67,6.63,13.67,18,0,10.71-5.15,17.9-13.67,17.9C5052.1,560.26,5046.54,553.68,5046.54,542.36Zm20.19,0c0-7.09-2.4-11.47-6.53-11.47s-6.58,4-6.58,11.47c0,7,2.45,11.47,6.58,11.47S5066.73,549.75,5066.73,542.36Z"/>
                <path class="cls-2" d="M5865.36,533.18l-5.86,4.39-3.31-5.15,10.61-7.6h5.56v35h-7Z"/>
                <path class="cls-2" d="M5901.2,550.31c0,6.07-5,9.94-11.83,9.94-6.22,0-10.86-3.26-12.54-7.7l6-2.5c.92,2.5,2.86,4,6,4,2.8,0,5.2-1.73,5.2-4.69,0-2.5-1.94-4.64-5.76-4.64h-2.55V539h3.11c3.11,0,4.54-1.84,4.54-4.13,0-2.55-2-4.23-4.64-4.23a5.39,5.39,0,0,0-5.1,2.91l-5.56-3c1.63-3.62,5.66-6.22,10.81-6.22,6.22,0,11.27,3.37,11.27,9.38a8.94,8.94,0,0,1-4.54,7.85v.1A9.09,9.09,0,0,1,5901.2,550.31Z"/>
                <path class="cls-2" d="M5906.19,556.23a4.13,4.13,0,1,1,4.13,4A4.06,4.06,0,0,1,5906.19,556.23Z"/>
                <path class="cls-2" d="M5918.3,542.36c0-10.71,5.15-18,13.62-18,8.16,0,13.67,6.63,13.67,18,0,10.71-5.15,17.9-13.67,17.9C5923.85,560.26,5918.3,553.68,5918.3,542.36Zm20.19,0c0-7.09-2.4-11.47-6.53-11.47s-6.58,4-6.58,11.47c0,7,2.45,11.47,6.58,11.47S5938.49,549.75,5938.49,542.36Z"/>
                <path class="cls-2" d="M5950.28,542.36c0-10.71,5.15-18,13.62-18,8.16,0,13.67,6.63,13.67,18,0,10.71-5.15,17.9-13.67,17.9C5955.84,560.26,5950.28,553.68,5950.28,542.36Zm20.19,0c0-7.09-2.4-11.47-6.53-11.47s-6.58,4-6.58,11.47c0,7,2.45,11.47,6.58,11.47S5970.48,549.75,5970.48,542.36Z"/>
                <path class="cls-2" d="M6315.79,533.18l-5.86,4.39-3.31-5.15,10.61-7.6h5.56v35h-7Z"/>
                <path class="cls-2" d="M6342.05,554.14h-14.84V549.7l16.06-24.89h5.61v23.36h4.69v6h-4.69v5.71h-6.83Zm.51-5.61V536l-7.8,12.54Z"/>
                <path class="cls-2" d="M6358.4,556.23a4.13,4.13,0,1,1,4.13,4A4.06,4.06,0,0,1,6358.4,556.23Z"/>
                <path class="cls-2" d="M6370.51,542.36c0-10.71,5.15-18,13.62-18,8.16,0,13.67,6.63,13.67,18,0,10.71-5.15,17.9-13.67,17.9C6376.06,560.26,6370.51,553.68,6370.51,542.36Zm20.19,0c0-7.09-2.4-11.47-6.53-11.47s-6.58,4-6.58,11.47c0,7,2.45,11.47,6.58,11.47S6390.7,549.75,6390.7,542.36Z"/>
                <path class="cls-2" d="M6402.49,542.36c0-10.71,5.15-18,13.62-18,8.16,0,13.67,6.63,13.67,18,0,10.71-5.15,17.9-13.67,17.9C6408.05,560.26,6402.49,553.68,6402.49,542.36Zm20.19,0c0-7.09-2.4-11.47-6.53-11.47s-6.58,4-6.58,11.47c0,7,2.45,11.47,6.58,11.47S6422.69,549.75,6422.69,542.36Z"/>
                <path class="cls-2" d="M6769.36,533.18l-5.86,4.39-3.31-5.15,10.61-7.6h5.56v35h-7Z"/>
                <path class="cls-2" d="M6806,548.53c0,6.94-5.46,11.73-12.54,11.73a15,15,0,0,1-12.09-5.51l5-4a8.13,8.13,0,0,0,6.73,3.21,5.57,5.57,0,0,0,5.86-5.51c0-3.67-3.16-5.51-6-5.51a7.91,7.91,0,0,0-5.25,1.78l-3.67-1.38,1.07-18.51h19.12v6.32H6791.1l-.41,6.88a15.54,15.54,0,0,1,4.39-.77C6801,537.26,6806,541.59,6806,548.53Z"/>
                <path class="cls-2" d="M6810.74,556.23a4.13,4.13,0,1,1,4.13,4A4.06,4.06,0,0,1,6810.74,556.23Z"/>
                <path class="cls-2" d="M6822.85,542.36c0-10.71,5.15-18,13.62-18,8.16,0,13.67,6.63,13.67,18,0,10.71-5.15,17.9-13.67,17.9C6828.41,560.26,6822.85,553.68,6822.85,542.36Zm20.19,0c0-7.09-2.4-11.47-6.53-11.47s-6.58,4-6.58,11.47c0,7,2.45,11.47,6.58,11.47S6843,549.75,6843,542.36Z"/>
                <path class="cls-2" d="M6854.84,542.36c0-10.71,5.15-18,13.62-18,8.16,0,13.67,6.63,13.67,18,0,10.71-5.15,17.9-13.67,17.9C6860.4,560.26,6854.84,553.68,6854.84,542.36Zm20.19,0c0-7.09-2.4-11.47-6.53-11.47s-6.58,4-6.58,11.47c0,7,2.45,11.47,6.58,11.47S6875,549.75,6875,542.36Z"/>
                <path class="cls-2" d="M7218.57,533.18l-5.86,4.39-3.31-5.15,10.61-7.6h5.56v35h-7Z"/>
                <path class="cls-2" d="M7256.8,548.68c0,6.88-5.46,11.58-12.65,11.58s-12.6-5.61-12.6-14a22.24,22.24,0,0,1,18.51-22.44l2,5.56c-6.27,1.79-10.5,4.69-12.54,9.69h.05a13.27,13.27,0,0,1,6.48-1.63C7251.91,537.41,7256.8,541.44,7256.8,548.68Zm-6.78-.15c0-3.06-2.24-5.3-5.76-5.3a8.18,8.18,0,0,0-6.07,3.11v.51c0,4.33,2.75,7.19,6.17,7.19A5.49,5.49,0,0,0,7250,548.53Z"/>
                <path class="cls-2" d="M7261.53,556.23a4.13,4.13,0,1,1,4.13,4A4.06,4.06,0,0,1,7261.53,556.23Z"/>
                <path class="cls-2" d="M7273.63,542.36c0-10.71,5.15-18,13.62-18,8.16,0,13.67,6.63,13.67,18,0,10.71-5.15,17.9-13.67,17.9C7279.19,560.26,7273.63,553.68,7273.63,542.36Zm20.19,0c0-7.09-2.4-11.47-6.53-11.47s-6.58,4-6.58,11.47c0,7,2.45,11.47,6.58,11.47S7293.83,549.75,7293.83,542.36Z"/>
                <path class="cls-2" d="M7305.62,542.36c0-10.71,5.15-18,13.62-18,8.16,0,13.67,6.63,13.67,18,0,10.71-5.15,17.9-13.67,17.9C7311.18,560.26,7305.62,553.68,7305.62,542.36Zm20.19,0c0-7.09-2.4-11.47-6.53-11.47s-6.58,4-6.58,11.47c0,7,2.45,11.47,6.58,11.47S7325.81,549.75,7325.81,542.36Z"/>
                <path class="cls-2" d="M7674.32,533.18l-5.86,4.39-3.32-5.15,10.61-7.6h5.56v35h-7Z"/>
                <path class="cls-2" d="M7707.87,524.81v4.54l-12.19,31.26-6.88-1.27,11.47-28.25H7686.1v-6.27Z"/>
                <path class="cls-2" d="M7708.43,556.23a4.13,4.13,0,1,1,4.13,4A4.06,4.06,0,0,1,7708.43,556.23Z"/>
                <path class="cls-2" d="M7720.53,542.36c0-10.71,5.15-18,13.62-18,8.16,0,13.67,6.63,13.67,18,0,10.71-5.15,17.9-13.67,17.9C7726.09,560.26,7720.53,553.68,7720.53,542.36Zm20.19,0c0-7.09-2.4-11.47-6.53-11.47s-6.58,4-6.58,11.47c0,7,2.45,11.47,6.58,11.47S7740.73,549.75,7740.73,542.36Z"/>
                <path class="cls-2" d="M7752.52,542.36c0-10.71,5.15-18,13.62-18,8.16,0,13.67,6.63,13.67,18,0,10.71-5.15,17.9-13.67,17.9C7758.08,560.26,7752.52,553.68,7752.52,542.36Zm20.19,0c0-7.09-2.4-11.47-6.53-11.47s-6.58,4-6.58,11.47c0,7,2.45,11.47,6.58,11.47S7772.71,549.75,7772.71,542.36Z"/>
                <path class="cls-2" d="M8117.46,533.18l-5.86,4.39-3.32-5.15,10.61-7.6h5.56v35h-7Z"/>
                <path class="cls-2" d="M8155.73,550.16c0,6.27-5.61,10.1-12.75,10.1s-12.65-4-12.65-10.1a9.37,9.37,0,0,1,6.17-9.23v-.1a8,8,0,0,1-4.39-7.29c0-5.92,4.79-9.13,10.86-9.13,6.32,0,10.91,3.37,10.91,9.13,0,3.57-2.19,6.43-4.39,7.29v.1A9.41,9.41,0,0,1,8155.73,550.16Zm-7.09-.92c0-3-2.29-5.1-5.66-5.1s-5.66,2.14-5.66,5.1,2.5,5.1,5.66,5.1C8146.4,554.34,8148.65,552,8148.65,549.24Zm-10.1-15c0,2.29,1.84,3.93,4.44,3.93s4.49-1.63,4.49-3.93a4.48,4.48,0,0,0-8.92,0Z"/>
                <path class="cls-2" d="M8160.56,556.23a4.13,4.13,0,1,1,4.13,4A4.06,4.06,0,0,1,8160.56,556.23Z"/>
                <path class="cls-2" d="M8172.66,542.36c0-10.71,5.15-18,13.62-18,8.16,0,13.67,6.63,13.67,18,0,10.71-5.15,17.9-13.67,17.9C8178.22,560.26,8172.66,553.68,8172.66,542.36Zm20.19,0c0-7.09-2.4-11.47-6.53-11.47s-6.58,4-6.58,11.47c0,7,2.45,11.47,6.58,11.47S8192.86,549.75,8192.86,542.36Z"/>
                <path class="cls-2" d="M8204.65,542.36c0-10.71,5.15-18,13.62-18,8.16,0,13.67,6.63,13.67,18,0,10.71-5.15,17.9-13.67,17.9C8210.21,560.26,8204.65,553.68,8204.65,542.36Zm20.19,0c0-7.09-2.4-11.47-6.53-11.47s-6.58,4-6.58,11.47c0,7,2.45,11.47,6.58,11.47S8224.84,549.75,8224.84,542.36Z"/>
                <path class="cls-2" d="M9029.39,553.52v6.32h-22.85l-.1-4.54,10.91-11.52c2.8-3,4.69-5.41,4.69-8.21a4.57,4.57,0,0,0-4.69-4.74,6.9,6.9,0,0,0-6.07,3.77l-5-3.57a12.54,12.54,0,0,1,11.63-6.63c5.81,0,11.12,3.88,11.12,10.4,0,4-1.28,7.09-5.81,11.78l-6.63,6.83v.1Z"/>
                <path class="cls-2" d="M9033.68,542.36c0-10.71,5.15-18,13.62-18,8.16,0,13.67,6.63,13.67,18,0,10.71-5.15,17.9-13.67,17.9C9039.24,560.26,9033.68,553.68,9033.68,542.36Zm20.19,0c0-7.09-2.4-11.47-6.53-11.47s-6.58,4-6.58,11.47c0,7,2.45,11.47,6.58,11.47S9053.88,549.75,9053.88,542.36Z"/>
                <path class="cls-2" d="M9064.9,556.23a4.13,4.13,0,1,1,4.13,4A4.06,4.06,0,0,1,9064.9,556.23Z"/>
                <path class="cls-2" d="M9077,542.36c0-10.71,5.15-18,13.62-18,8.16,0,13.67,6.63,13.67,18,0,10.71-5.15,17.9-13.67,17.9C9082.56,560.26,9077,553.68,9077,542.36Zm20.19,0c0-7.09-2.4-11.47-6.53-11.47s-6.58,4-6.58,11.47c0,7,2.45,11.47,6.58,11.47S9097.2,549.75,9097.2,542.36Z"/>
                <path class="cls-2" d="M9109,542.36c0-10.71,5.15-18,13.62-18,8.16,0,13.67,6.63,13.67,18,0,10.71-5.15,17.9-13.67,17.9C9114.55,560.26,9109,553.68,9109,542.36Zm20.19,0c0-7.09-2.4-11.47-6.53-11.47s-6.58,4-6.58,11.47c0,7,2.45,11.47,6.58,11.47S9129.18,549.75,9129.18,542.36Z"/>
                <path class="cls-2" d="M8569.2,533.18l-5.86,4.39-3.31-5.15,10.61-7.6h5.56v35h-7Z"/>
                <path class="cls-2" d="M8606.88,538.48a22.55,22.55,0,0,1-18.72,22.64l-2-5.61c6.37-1.73,10.71-4.74,12.8-9.79l-.05-.05a13.61,13.61,0,0,1-6.53,1.63c-5.81,0-10.66-4.08-10.66-11.22,0-6.94,5.46-11.68,12.54-11.68C8601.53,524.41,8606.88,530.07,8606.88,538.48Zm-12.7,3a8.18,8.18,0,0,0,6.07-3.11v-.46c0-4.39-2.55-7.24-5.92-7.24a5.54,5.54,0,0,0-5.86,5.51C8588.47,539.3,8590.62,541.49,8594.19,541.49Z"/>
                <path class="cls-2" d="M8609.24,556.23a4.13,4.13,0,1,1,4.13,4A4.06,4.06,0,0,1,8609.24,556.23Z"/>
                <path class="cls-2" d="M8621.35,542.36c0-10.71,5.15-18,13.62-18,8.16,0,13.67,6.63,13.67,18,0,10.71-5.15,17.9-13.67,17.9C8626.91,560.26,8621.35,553.68,8621.35,542.36Zm20.19,0c0-7.09-2.4-11.47-6.53-11.47s-6.58,4-6.58,11.47c0,7,2.45,11.47,6.58,11.47S8641.54,549.75,8641.54,542.36Z"/>
                <path class="cls-2" d="M8653.33,542.36c0-10.71,5.15-18,13.62-18,8.16,0,13.67,6.63,13.67,18,0,10.71-5.15,17.9-13.67,17.9C8658.89,560.26,8653.33,553.68,8653.33,542.36Zm20.19,0c0-7.09-2.4-11.47-6.53-11.47s-6.58,4-6.58,11.47c0,7,2.45,11.47,6.58,11.47S8673.53,549.75,8673.53,542.36Z"/>
                <path class="cls-2" d="M9484.06,553.52v6.32h-22.85l-.1-4.54L9472,543.78c2.8-3,4.69-5.41,4.69-8.21a4.57,4.57,0,0,0-4.69-4.74,6.9,6.9,0,0,0-6.07,3.77l-5-3.57a12.54,12.54,0,0,1,11.63-6.63c5.81,0,11.12,3.88,11.12,10.4,0,4-1.28,7.09-5.81,11.78l-6.63,6.83v.1Z"/>
                <path class="cls-2" d="M9496.31,533.18l-5.86,4.39-3.31-5.15,10.61-7.6h5.56v35h-7Z"/>
                <path class="cls-2" d="M9510.22,556.23a4.13,4.13,0,1,1,4.13,4A4.06,4.06,0,0,1,9510.22,556.23Z"/>
                <path class="cls-2" d="M9522.33,542.36c0-10.71,5.15-18,13.62-18,8.16,0,13.67,6.63,13.67,18,0,10.71-5.15,17.9-13.67,17.9C9527.88,560.26,9522.33,553.68,9522.33,542.36Zm20.19,0c0-7.09-2.4-11.47-6.53-11.47s-6.58,4-6.58,11.47c0,7,2.45,11.47,6.58,11.47S9542.52,549.75,9542.52,542.36Z"/>
                <path class="cls-2" d="M9554.31,542.36c0-10.71,5.15-18,13.62-18,8.16,0,13.67,6.63,13.67,18,0,10.71-5.15,17.9-13.67,17.9C9559.87,560.26,9554.31,553.68,9554.31,542.36Zm20.19,0c0-7.09-2.4-11.47-6.53-11.47s-6.58,4-6.58,11.47c0,7,2.45,11.47,6.58,11.47S9574.51,549.75,9574.51,542.36Z"/>
                <path class="cls-2" d="M9923.53,553.52v6.32h-22.85l-.1-4.54,10.91-11.52c2.8-3,4.69-5.41,4.69-8.21a4.57,4.57,0,0,0-4.69-4.74,6.9,6.9,0,0,0-6.07,3.77l-5-3.57a12.54,12.54,0,0,1,11.63-6.63c5.81,0,11.12,3.88,11.12,10.4,0,4-1.28,7.09-5.81,11.78l-6.63,6.83v.1Z"/>
                <path class="cls-2" d="M9950.37,553.52v6.32h-22.85l-.1-4.54,10.91-11.52c2.8-3,4.69-5.41,4.69-8.21a4.57,4.57,0,0,0-4.69-4.74,6.9,6.9,0,0,0-6.07,3.77l-5-3.57a12.54,12.54,0,0,1,11.63-6.63c5.81,0,11.12,3.88,11.12,10.4,0,4-1.28,7.09-5.81,11.78l-6.63,6.83v.1Z"/>
                <path class="cls-2" d="M9956.39,556.23a4.13,4.13,0,1,1,4.13,4A4.06,4.06,0,0,1,9956.39,556.23Z"/>
                <path class="cls-2" d="M9968.5,542.36c0-10.71,5.15-18,13.62-18,8.16,0,13.67,6.63,13.67,18,0,10.71-5.15,17.9-13.67,17.9C9974.06,560.26,9968.5,553.68,9968.5,542.36Zm20.19,0c0-7.09-2.4-11.47-6.53-11.47s-6.58,4-6.58,11.47c0,7,2.45,11.47,6.58,11.47S9988.7,549.75,9988.7,542.36Z"/>
                <path class="cls-2" d="M10000.49,542.36c0-10.71,5.15-18,13.62-18,8.16,0,13.67,6.63,13.67,18,0,10.71-5.15,17.9-13.67,17.9C10006,560.26,10000.49,553.68,10000.49,542.36Zm20.19,0c0-7.09-2.4-11.47-6.53-11.47s-6.58,4-6.58,11.47c0,7,2.45,11.47,6.58,11.47S10020.68,549.75,10020.68,542.36Z"/>
                <path class="cls-2" d="M10373.75,553.52v6.32h-22.85l-.1-4.54,10.91-11.52c2.8-3,4.69-5.41,4.69-8.21a4.57,4.57,0,0,0-4.69-4.74,6.9,6.9,0,0,0-6.07,3.77l-5-3.57a12.54,12.54,0,0,1,11.63-6.63c5.81,0,11.12,3.88,11.12,10.4,0,4-1.27,7.09-5.81,11.78l-6.63,6.83v.1Z"/>
                <path class="cls-2" d="M10401.61,550.31c0,6.07-5,9.94-11.83,9.94-6.22,0-10.86-3.26-12.54-7.7l6-2.5c.92,2.5,2.86,4,6,4,2.8,0,5.2-1.73,5.2-4.69,0-2.5-1.94-4.64-5.76-4.64h-2.55V539h3.11c3.11,0,4.54-1.84,4.54-4.13,0-2.55-2-4.23-4.64-4.23a5.39,5.39,0,0,0-5.1,2.91l-5.56-3c1.63-3.62,5.66-6.22,10.81-6.22,6.22,0,11.27,3.37,11.27,9.38a8.94,8.94,0,0,1-4.54,7.85v.1A9.09,9.09,0,0,1,10401.61,550.31Z"/>
                <path class="cls-2" d="M10406.59,556.23a4.13,4.13,0,1,1,4.13,4A4.06,4.06,0,0,1,10406.59,556.23Z"/>
                <path class="cls-2" d="M10418.7,542.36c0-10.71,5.15-18,13.62-18,8.16,0,13.67,6.63,13.67,18,0,10.71-5.15,17.9-13.67,17.9C10424.26,560.26,10418.7,553.68,10418.7,542.36Zm20.19,0c0-7.09-2.4-11.47-6.53-11.47s-6.58,4-6.58,11.47c0,7,2.45,11.47,6.58,11.47S10438.89,549.75,10438.89,542.36Z"/>
                <path class="cls-2" d="M10450.68,542.36c0-10.71,5.15-18,13.62-18,8.16,0,13.67,6.63,13.67,18,0,10.71-5.15,17.9-13.67,17.9C10456.24,560.26,10450.68,553.68,10450.68,542.36Zm20.19,0c0-7.09-2.4-11.47-6.53-11.47s-6.58,4-6.58,11.47c0,7,2.45,11.47,6.58,11.47S10470.88,549.75,10470.88,542.36Z"/>
                <path class="cls-2" d="M455.08,541.9c0-10.71,5.15-18,13.62-18,8.16,0,13.67,6.63,13.67,18,0,10.71-5.15,17.9-13.67,17.9C460.64,559.8,455.08,553.22,455.08,541.9Zm20.19,0c0-7.09-2.4-11.47-6.53-11.47s-6.58,4-6.58,11.47c0,7,2.45,11.47,6.58,11.47S475.27,549.29,475.27,541.9Z"/>
                <path class="cls-2" d="M494.21,532.72l-5.86,4.39L485,532l10.61-7.6h5.56v35h-7Z"/>
                <path class="cls-2" d="M508.12,555.77a4.13,4.13,0,1,1,4.13,4A4.06,4.06,0,0,1,508.12,555.77Z"/>
                <path class="cls-2" d="M520.23,541.9c0-10.71,5.15-18,13.62-18,8.16,0,13.67,6.63,13.67,18,0,10.71-5.15,17.9-13.67,17.9C525.79,559.8,520.23,553.22,520.23,541.9Zm20.19,0c0-7.09-2.4-11.47-6.53-11.47s-6.58,4-6.58,11.47c0,7,2.45,11.47,6.58,11.47S540.42,549.29,540.42,541.9Z"/>
                <path class="cls-2" d="M552.22,541.9c0-10.71,5.15-18,13.62-18,8.16,0,13.67,6.63,13.67,18,0,10.71-5.15,17.9-13.67,17.9C557.77,559.8,552.22,553.22,552.22,541.9Zm20.19,0c0-7.09-2.4-11.47-6.53-11.47s-6.58,4-6.58,11.47c0,7,2.45,11.47,6.58,11.47S572.41,549.29,572.41,541.9Z"/>
                <path class="cls-2" d="M0,541.9c0-10.71,5.15-18,13.62-18,8.16,0,13.67,6.63,13.67,18,0,10.71-5.15,17.9-13.67,17.9C5.56,559.8,0,553.22,0,541.9Zm20.19,0c0-7.09-2.4-11.47-6.53-11.47s-6.58,4-6.58,11.47c0,7,2.45,11.47,6.58,11.47S20.19,549.29,20.19,541.9Z"/>
                <path class="cls-2" d="M32,541.9c0-10.71,5.15-18,13.62-18,8.16,0,13.67,6.63,13.67,18,0,10.71-5.15,17.9-13.67,17.9C37.55,559.8,32,553.22,32,541.9Zm20.19,0c0-7.09-2.4-11.47-6.53-11.47s-6.58,4-6.58,11.47c0,7,2.45,11.47,6.58,11.47S52.18,549.29,52.18,541.9Z"/>
                <path class="cls-2" d="M63.2,555.77a4.13,4.13,0,1,1,4.13,4A4.06,4.06,0,0,1,63.2,555.77Z"/>
                <path class="cls-2" d="M75.31,541.9c0-10.71,5.15-18,13.62-18,8.16,0,13.67,6.63,13.67,18,0,10.71-5.15,17.9-13.67,17.9C80.86,559.8,75.31,553.22,75.31,541.9Zm20.19,0c0-7.09-2.4-11.47-6.53-11.47s-6.58,4-6.58,11.47c0,7,2.45,11.47,6.58,11.47S95.5,549.29,95.5,541.9Z"/>
                <path class="cls-2" d="M107.29,541.9c0-10.71,5.15-18,13.62-18,8.16,0,13.67,6.63,13.67,18,0,10.71-5.15,17.9-13.67,17.9C112.85,559.8,107.29,553.22,107.29,541.9Zm20.19,0c0-7.09-2.4-11.47-6.53-11.47s-6.58,4-6.58,11.47c0,7,2.45,11.47,6.58,11.47S127.49,549.29,127.49,541.9Z"/>
                <polygon class="cls-2" points="10868.06 491.61 66.52 491.61 66.52 448.11 68.06 448.11 68.06 490.08 10866.52 490.08 10866.52 448.11 10868.06 448.11 10868.06 491.61"/>
                <rect class="cls-2" x="516.52" y="448.11" width="1.53" height="42.74"/>
                <rect class="cls-2" x="966.52" y="448.11" width="1.53" height="42.74"/>
                <rect class="cls-2" x="1416.52" y="448.11" width="1.53" height="42.74"/>
                <rect class="cls-2" x="854.02" y="469.48" width="1.53" height="21.51"/>
                <rect class="cls-2" x="404.02" y="469.48" width="1.53" height="21.51"/>
                <rect class="cls-2" x="1304.02" y="469.48" width="1.53" height="21.51"/>
                <rect class="cls-2" x="1866.52" y="448.11" width="1.53" height="42.74"/>
                <rect class="cls-2" x="1754.02" y="469.48" width="1.53" height="21.51"/>
                <rect class="cls-2" x="629.02" y="469.48" width="1.53" height="21.51"/>
                <rect class="cls-2" x="179.02" y="469.48" width="1.53" height="21.51"/>
                <rect class="cls-2" x="1079.02" y="469.48" width="1.53" height="21.51"/>
                <rect class="cls-2" x="1529.02" y="469.48" width="1.53" height="21.51"/>
                <rect class="cls-2" x="741.52" y="469.48" width="1.53" height="21.51"/>
                <rect class="cls-2" x="291.52" y="469.48" width="1.53" height="21.51"/>
                <rect class="cls-2" x="1191.52" y="469.48" width="1.53" height="21.51"/>
                <rect class="cls-2" x="1641.52" y="469.48" width="1.53" height="21.51"/>
                <rect class="cls-2" x="2316.52" y="448.11" width="1.53" height="42.74"/>
                <rect class="cls-2" x="2766.52" y="448.11" width="1.53" height="42.74"/>
                <rect class="cls-2" x="3216.52" y="448.11" width="1.53" height="42.74"/>
                <rect class="cls-2" x="2654.02" y="469.48" width="1.53" height="21.51"/>
                <rect class="cls-2" x="2204.02" y="469.48" width="1.53" height="21.51"/>
                <rect class="cls-2" x="3104.02" y="469.48" width="1.53" height="21.51"/>
                <rect class="cls-2" x="3666.52" y="448.11" width="1.53" height="42.74"/>
                <rect class="cls-2" x="3554.02" y="469.48" width="1.53" height="21.51"/>
                <rect class="cls-2" x="2429.02" y="469.48" width="1.53" height="21.51"/>
                <rect class="cls-2" x="1979.02" y="469.48" width="1.53" height="21.51"/>
                <rect class="cls-2" x="2879.02" y="469.48" width="1.53" height="21.51"/>
                <rect class="cls-2" x="3329.02" y="469.48" width="1.53" height="21.51"/>
                <rect class="cls-2" x="2541.52" y="469.48" width="1.53" height="21.51"/>
                <rect class="cls-2" x="2091.52" y="469.48" width="1.53" height="21.51"/>
                <rect class="cls-2" x="2991.52" y="469.48" width="1.53" height="21.51"/>
                <rect class="cls-2" x="3441.52" y="469.48" width="1.53" height="21.51"/>
                <rect class="cls-2" x="4116.52" y="448.11" width="1.53" height="42.74"/>
                <rect class="cls-2" x="4566.52" y="448.11" width="1.53" height="42.74"/>
                <rect class="cls-2" x="5016.52" y="448.11" width="1.53" height="42.74"/>
                <rect class="cls-2" x="4454.02" y="469.48" width="1.53" height="21.51"/>
                <rect class="cls-2" x="4004.02" y="469.48" width="1.53" height="21.51"/>
                <rect class="cls-2" x="4904.02" y="469.48" width="1.53" height="21.51"/>
                <rect class="cls-2" x="5466.52" y="448.11" width="1.53" height="42.74"/>
                <rect class="cls-2" x="5354.02" y="469.48" width="1.53" height="21.51"/>
                <rect class="cls-2" x="4229.02" y="469.48" width="1.53" height="21.51"/>
                <rect class="cls-2" x="3779.02" y="469.48" width="1.53" height="21.51"/>
                <rect class="cls-2" x="4679.02" y="469.48" width="1.53" height="21.51"/>
                <rect class="cls-2" x="5129.02" y="469.48" width="1.53" height="21.51"/>
                <rect class="cls-2" x="4341.52" y="469.48" width="1.53" height="21.51"/>
                <rect class="cls-2" x="3891.52" y="469.48" width="1.53" height="21.51"/>
                <rect class="cls-2" x="4791.52" y="469.48" width="1.53" height="21.51"/>
                <rect class="cls-2" x="5241.52" y="469.48" width="1.53" height="21.51"/>
                <rect class="cls-2" x="5916.52" y="448.11" width="1.53" height="42.74"/>
                <rect class="cls-2" x="6366.52" y="448.11" width="1.53" height="42.74"/>
                <rect class="cls-2" x="6816.52" y="448.11" width="1.53" height="42.74"/>
                <rect class="cls-2" x="6254.02" y="469.48" width="1.53" height="21.51"/>
                <rect class="cls-2" x="5804.02" y="469.48" width="1.53" height="21.51"/>
                <rect class="cls-2" x="6704.02" y="469.48" width="1.53" height="21.51"/>
                <rect class="cls-2" x="7266.52" y="448.11" width="1.53" height="42.74"/>
                <rect class="cls-2" x="7154.02" y="469.48" width="1.53" height="21.51"/>
                <rect class="cls-2" x="6029.02" y="469.48" width="1.53" height="21.51"/>
                <rect class="cls-2" x="5579.02" y="469.48" width="1.53" height="21.51"/>
                <rect class="cls-2" x="6479.02" y="469.48" width="1.53" height="21.51"/>
                <rect class="cls-2" x="6929.02" y="469.48" width="1.53" height="21.51"/>
                <rect class="cls-2" x="6141.52" y="469.48" width="1.53" height="21.51"/>
                <rect class="cls-2" x="5691.52" y="469.48" width="1.53" height="21.51"/>
                <rect class="cls-2" x="6591.52" y="469.48" width="1.53" height="21.51"/>
                <rect class="cls-2" x="7041.52" y="469.48" width="1.53" height="21.51"/>
                <rect class="cls-2" x="7716.52" y="448.11" width="1.53" height="42.74"/>
                <rect class="cls-2" x="8166.52" y="448.11" width="1.53" height="42.74"/>
                <rect class="cls-2" x="8616.52" y="448.11" width="1.53" height="42.74"/>
                <rect class="cls-2" x="8054.02" y="469.48" width="1.53" height="21.51"/>
                <rect class="cls-2" x="7604.02" y="469.48" width="1.53" height="21.51"/>
                <rect class="cls-2" x="8504.02" y="469.48" width="1.53" height="21.51"/>
                <rect class="cls-2" x="9066.52" y="448.11" width="1.53" height="42.74"/>
                <rect class="cls-2" x="8954.02" y="469.48" width="1.53" height="21.51"/>
                <rect class="cls-2" x="7829.02" y="469.48" width="1.53" height="21.51"/>
                <rect class="cls-2" x="7379.02" y="469.48" width="1.53" height="21.51"/>
                <rect class="cls-2" x="8279.02" y="469.48" width="1.53" height="21.51"/>
                <rect class="cls-2" x="8729.02" y="469.48" width="1.53" height="21.51"/>
                <rect class="cls-2" x="7941.52" y="469.48" width="1.53" height="21.51"/>
                <rect class="cls-2" x="7491.52" y="469.48" width="1.53" height="21.51"/>
                <rect class="cls-2" x="8391.52" y="469.48" width="1.53" height="21.51"/>
                <rect class="cls-2" x="8841.52" y="469.48" width="1.53" height="21.51"/>
                <rect class="cls-2" x="9516.52" y="448.11" width="1.53" height="42.74"/>
                <rect class="cls-2" x="9404.02" y="469.48" width="1.53" height="21.51"/>
                <rect class="cls-2" x="9179.02" y="469.48" width="1.53" height="21.51"/>
                <rect class="cls-2" x="9291.52" y="469.48" width="1.53" height="21.51"/>
                <rect class="cls-2" x="9966.52" y="448.11" width="1.53" height="42.74"/>
                <rect class="cls-2" x="10416.52" y="448.11" width="1.53" height="42.74"/>
                <rect class="cls-2" x="10304.02" y="469.48" width="1.53" height="21.51"/>
                <rect class="cls-2" x="9854.02" y="469.48" width="1.53" height="21.51"/>
                <rect class="cls-2" x="10754.02" y="469.48" width="1.53" height="21.51"/>
                <rect class="cls-2" x="10079.02" y="469.48" width="1.53" height="21.51"/>
                <rect class="cls-2" x="9629.02" y="469.48" width="1.53" height="21.51"/>
                <rect class="cls-2" x="10529.02" y="469.48" width="1.53" height="21.51"/>
                <rect class="cls-2" x="10191.52" y="469.48" width="1.53" height="21.51"/>
                <rect class="cls-2" x="9741.52" y="469.48" width="1.53" height="21.51"/>
                <rect class="cls-2" x="10641.52" y="469.48" width="1.53" height="21.51"/>
                <rect class="cls-2" x="350.37" y="361.52" width="108.84" height="68.3"/>
                <rect class="cls-2" x="462.87" y="307.98" width="108.84" height="121.83"/>
                <rect class="cls-2" x="237.87" y="337.52" width="108.84" height="92.3"/>
                <rect class="cls-2" x="800.37" y="361.52" width="108.84" height="68.3"/>
                <rect class="cls-2" x="575.37" y="361.52" width="108.84" height="68.3"/>
                <rect class="cls-2" x="687.87" y="361.52" width="108.84" height="68.3"/>
                <rect class="cls-2" x="1137.87" y="307.98" width="108.84" height="121.83"/>
                <rect class="cls-2" x="912.87" y="307.98" width="108.84" height="121.83"/>
                <rect class="cls-2" x="1250.37" y="307.98" width="108.84" height="121.83"/>
                <rect class="cls-2" x="1362.87" y="231.7" width="108.84" height="198.11"/>
                <rect class="cls-2" x="1025.37" y="307.98" width="108.84" height="121.83"/>
                <rect class="cls-1" x="3278.01" y="62.16" width="108.84" height="166.19"/>
                <rect class="cls-1" x="3053.01" y="168.23" width="108.84" height="60.12"/>
                <rect class="cls-1" x="3165.51" y="109.26" width="108.84" height="119.09"/>
                <rect class="cls-1" x="3615.51" y="62.16" width="108.84" height="166.19"/>
                <rect class="cls-1" x="3390.51" y="168.23" width="108.84" height="60.12"/>
                <rect class="cls-1" x="3728.01" y="174.37" width="108.84" height="53.98"/>
                <rect class="cls-1" x="3503.01" y="109.26" width="108.84" height="119.09"/>
                <rect class="cls-1" x="3953.54" y="62.16" width="108.84" height="166.19"/>
                <rect class="cls-1" x="4066.04" y="174.37" width="108.84" height="53.98"/>
                <rect class="cls-1" x="4966.57" y="174.37" width="108.84" height="53.98"/>
                <rect class="cls-1" x="5304.78" y="174.37" width="108.84" height="53.98"/>
                <rect class="cls-1" x="5192.04" y="174.37" width="108.84" height="53.98"/>
                <rect class="cls-1" x="5530.26" y="174.37" width="108.84" height="53.98"/>
                <rect class="cls-1" x="3841.04" y="109.26" width="108.84" height="119.09"/>
                <rect class="cls-1" x="7556.84" y="62.16" width="108.84" height="166.19"/>
                <rect class="cls-1" x="7331.84" y="168.23" width="108.84" height="60.12"/>
                <rect class="cls-1" x="7444.34" y="109.26" width="108.84" height="119.09"/>
                <rect class="cls-1" x="7894.34" y="62.16" width="108.84" height="166.19"/>
                <rect class="cls-1" x="7669.34" y="62.16" width="108.84" height="166.19"/>
                <rect class="cls-1" x="8006.85" y="174.37" width="108.84" height="53.98"/>
                <rect class="cls-1" x="7781.84" width="108.84" height="228.35"/>
                <rect class="cls-1" x="8119.87" y="109.26" width="108.84" height="119.09"/>
                <rect class="cls-1" x="5079.31" y="109.26" width="108.84" height="119.09"/>
                <rect class="cls-1" x="5417.52" y="109.26" width="108.84" height="119.09"/>
                <rect class="cls-2" x="1587.87" y="361.52" width="108.84" height="68.3"/>
                <rect class="cls-2" x="1475.37" y="307.98" width="108.84" height="121.83"/>
                <rect class="cls-2" x="3278.01" y="231.7" width="108.84" height="198.11"/>
                <rect class="cls-2" x="3390.51" y="231.7" width="108.84" height="198.11"/>
                <rect class="cls-2" x="3503.01" y="231.7" width="108.84" height="198.11"/>
                <rect class="cls-2" x="3165.51" y="231.7" width="108.84" height="198.11"/>
                <rect class="cls-2" x="1700.37" y="337.52" width="108.84" height="92.3"/>
                <rect class="cls-2" x="1813.53" y="231.7" width="108.84" height="198.11"/>
                <rect class="cls-2" x="2601.69" y="231.7" width="108.84" height="198.11"/>
                <rect class="cls-2" x="2826.69" y="283.22" width="108.84" height="146.59"/>
                <rect class="cls-2" x="2714.19" y="307.98" width="108.84" height="121.83"/>
                <rect class="cls-2" x="2939.19" y="231.7" width="108.84" height="198.11"/>
                <rect class="cls-2" x="3052.35" y="231.7" width="108.84" height="198.11"/>
                <rect class="cls-2" x="3841.04" y="231.7" width="108.84" height="198.11"/>
                <rect class="cls-2" x="3953.54" y="231.7" width="108.84" height="198.11"/>
                <rect class="cls-2" x="4066.04" y="231.7" width="108.84" height="198.11"/>
                <rect class="cls-2" x="3728.54" y="231.7" width="108.84" height="198.11"/>
                <rect class="cls-2" x="3615.38" y="231.7" width="108.84" height="198.11"/>
                <rect class="cls-2" x="2038.53" y="361.52" width="108.84" height="68.3"/>
                <rect class="cls-2" x="1926.03" y="307.98" width="108.84" height="121.83"/>
                <rect class="cls-2" x="2151.03" y="337.52" width="108.84" height="92.3"/>
                <rect class="cls-2" x="2376.69" y="361.52" width="108.84" height="68.3"/>
                <rect class="cls-2" x="2264.19" y="307.98" width="108.84" height="121.83"/>
                <rect class="cls-2" x="2489.19" y="337.52" width="108.84" height="92.3"/>
                <rect class="cls-2" x="5192.23" y="231.7" width="108.84" height="198.11"/>
                <rect class="cls-2" x="5304.73" y="231.7" width="108.84" height="198.11"/>
                <rect class="cls-2" x="5417.23" y="231.7" width="108.84" height="198.11"/>
                <rect class="cls-2" x="5079.73" y="231.7" width="108.84" height="198.11"/>
                <rect class="cls-2" x="5642.23" y="318.76" width="108.84" height="111.05"/>
                <rect class="cls-2" x="5529.73" y="231.7" width="108.84" height="198.11"/>
                <rect class="cls-2" x="4515.91" y="231.7" width="108.84" height="198.11"/>
                <rect class="cls-2" x="4740.91" y="361.52" width="108.84" height="68.3"/>
                <rect class="cls-2" x="4628.41" y="307.98" width="108.84" height="121.83"/>
                <rect class="cls-2" x="4853.41" y="337.52" width="108.84" height="92.3"/>
                <rect class="cls-2" x="4966.57" y="231.7" width="108.84" height="198.11"/>
                <rect class="cls-2" x="7557.21" y="231.7" width="108.84" height="198.11"/>
                <rect class="cls-2" x="7669.71" y="231.7" width="108.84" height="198.11"/>
                <rect class="cls-2" x="7782.21" y="231.7" width="108.84" height="198.11"/>
                <rect class="cls-2" x="7444.71" y="231.7" width="108.84" height="198.11"/>
                <rect class="cls-2" x="7105.89" y="361.52" width="108.84" height="68.3"/>
                <rect class="cls-2" x="7218.39" y="337.52" width="108.84" height="92.3"/>
                <rect class="cls-2" x="7331.55" y="231.7" width="108.84" height="198.11"/>
                <rect class="cls-2" x="8120.31" y="231.7" width="108.84" height="198.11"/>
                <rect class="cls-2" x="8232.81" y="307.98" width="108.84" height="121.83"/>
                <rect class="cls-2" x="8345.31" y="307.98" width="108.84" height="121.83"/>
                <rect class="cls-2" x="8007.81" y="231.7" width="108.84" height="198.11"/>
                <rect class="cls-2" x="7894.65" y="231.7" width="108.84" height="198.11"/>
                <rect class="cls-2" x="4290.91" y="361.52" width="108.84" height="68.3"/>
                <rect class="cls-2" x="4178.41" y="307.98" width="108.84" height="121.83"/>
                <rect class="cls-2" x="4403.41" y="337.52" width="108.84" height="92.3"/>
                <rect class="cls-2" x="5867.32" y="318.76" width="108.84" height="111.05"/>
                <rect class="cls-2" x="5754.82" y="231.7" width="108.84" height="198.11"/>
                <rect class="cls-2" x="6655.21" y="231.7" width="108.84" height="198.11"/>
                <rect class="cls-2" x="6880.22" y="361.52" width="108.84" height="68.3"/>
                <rect class="cls-2" x="6767.72" y="307.98" width="108.84" height="121.83"/>
                <rect class="cls-2" x="6992.72" y="337.52" width="108.84" height="92.3"/>
                <rect class="cls-2" x="6092.05" y="318.76" width="108.84" height="111.05"/>
                <rect class="cls-2" x="5979.55" y="231.7" width="108.84" height="198.11"/>
                <rect class="cls-2" x="6204.55" y="337.52" width="108.84" height="92.3"/>
                <rect class="cls-2" x="6430.21" y="361.52" width="108.84" height="68.3"/>
                <rect class="cls-2" x="6317.71" y="307.98" width="108.84" height="121.83"/>
                <rect class="cls-2" x="6542.71" y="337.52" width="108.84" height="92.3"/>
                <rect class="cls-2" x="8458.14" y="318.76" width="108.84" height="111.05"/>
                <rect class="cls-2" x="9921.81" y="361.52" width="108.84" height="68.3"/>
                <rect class="cls-2" x="10034.31" y="337.52" width="108.84" height="92.3"/>
                <rect class="cls-2" x="8683.23" y="318.76" width="108.84" height="111.05"/>
                <rect class="cls-2" x="8570.73" y="231.7" width="108.84" height="198.11"/>
                <rect class="cls-2" x="9471.13" y="231.7" width="108.84" height="198.11"/>
                <rect class="cls-2" x="9696.13" y="361.52" width="108.84" height="68.3"/>
                <rect class="cls-2" x="9583.63" y="307.98" width="108.84" height="121.83"/>
                <rect class="cls-2" x="9808.63" y="337.52" width="108.84" height="92.3"/>
                <rect class="cls-2" x="10372.59" y="361.52" width="108.84" height="68.3"/>
                <rect class="cls-2" x="10485.09" y="337.52" width="108.84" height="92.3"/>
                <rect class="cls-2" x="10146.91" y="361.52" width="108.84" height="68.3"/>
                <rect class="cls-2" x="10259.41" y="337.52" width="108.84" height="92.3"/>
                <rect class="cls-2" x="10710.55" y="361.52" width="108.84" height="68.3"/>
                <rect class="cls-2" x="10597.38" y="337.52" width="108.84" height="92.3"/>
                <rect class="cls-2" x="8907.97" y="318.76" width="108.84" height="111.05"/>
                <rect class="cls-2" x="8795.47" y="231.7" width="108.84" height="198.11"/>
                <rect class="cls-2" x="9020.47" y="337.52" width="108.84" height="92.3"/>
                <rect class="cls-2" x="9246.13" y="361.52" width="108.84" height="68.3"/>
                <rect class="cls-2" x="9133.63" y="307.98" width="108.84" height="121.83"/>
                <rect class="cls-2" x="9358.63" y="337.52" width="108.84" height="92.3"/>
            </g>
        </g>
    </g>
</svg>