<svg 
    xmlns="http://www.w3.org/2000/svg" 
    width="75" height="94"
    viewBox="0 0 75.51 94.93">
    <defs>
        <style>.cls-1{fill:#0092ff;}.cls-2{fill:#1e3445;}</style>
    </defs>
    <title>Asset 7speed_sign3</title>
    <g id="Layer_2" data-name="Layer 2">
        <g id="Layer_1-2" data-name="Layer 1">
            <path class="cls-1" d="M39.72,2.5l-.32-.69a1.82,1.82,0,0,0-3.29,0l-.32.69A69.53,69.53,0,0,1,15.12,27.92,37,37,0,1,0,60.49,28,70.32,70.32,0,0,1,39.72,2.5Z"/>
            <path class="cls-2" d="M37.76,94.93l-1.11,0a37.75,37.75,0,0,1-22-67.6A69.2,69.2,0,0,0,35.09,2.18l.32-.69a2.58,2.58,0,0,1,4.68,0l.32.69A69.12,69.12,0,0,0,61,27.4a37.75,37.75,0,0,1-23.2,67.53Zm0-93.39a1,1,0,0,0-1,.61l-.32.69A70.74,70.74,0,0,1,15.59,28.52,36.22,36.22,0,1,0,60,28.6,70.64,70.64,0,0,1,39,2.83l-.32-.69A1,1,0,0,0,37.75,1.53Z"/>
            <path class="cls-2" d="M24.14,76.83,23.2,77.9v1.62H21.39V69.34H23.2v6.15h0l2.42-2.72h2.12l-2.38,2.68,2.42,4.06h-2l-1.6-2.68Z"/>
            <path class="cls-2" d="M39.45,75.59v3.93H37.64V76c0-1.08-.33-1.76-1.18-1.76s-1.38.65-1.38,1.87v3.37H33.27V76c0-1.08-.35-1.76-1.19-1.76s-1.42.65-1.42,1.87v3.37H28.85V72.77h1.81v.9h0a2.56,2.56,0,0,1,2-1,2.12,2.12,0,0,1,2,1.08h0a2.89,2.89,0,0,1,2.35-1.08C38.54,72.66,39.45,73.53,39.45,75.59Z"/>
            <path class="cls-2" d="M40.08,80.44l5.28-11.81,1.34.62L41.43,81.06Z"/>
            <path class="cls-2" d="M54.21,75.46v4.05H52.4V75.92c0-1.24-.46-1.65-1.31-1.65s-1.59.61-1.59,1.81v3.43H47.69V69.34H49.5v4.24h0a2.87,2.87,0,0,1,2.2-.93C53.18,72.66,54.21,73.4,54.21,75.46Z"/>
        </g>
    </g>
</svg>