<svg 
    xmlns="http://www.w3.org/2000/svg" 
    width="101" height="135"
    viewBox="0 0 101.19 135.6">
    <defs>
        <style>.cls-1{fill:#0092ff;}.cls-2{fill:#1e3445;}</style>
    </defs>
    <title>Asset 6speed_sign2</title>
    <g id="Layer_2" data-name="Layer 2">
        <g id="Layer_1-2" data-name="Layer 1">
            <path class="cls-1" d="M50.6,1.39,43,12.85a21.05,21.05,0,0,1-17.54,9.4H14.38A13.61,13.61,0,0,0,.77,35.87v85.35a13.61,13.61,0,0,0,13.61,13.61H86.81a13.61,13.61,0,0,0,13.61-13.61V35.87A13.61,13.61,0,0,0,86.81,22.25H75.75a21.05,21.05,0,0,1-17.54-9.4Z"/>
            <path class="cls-2" d="M86.81,135.6H14.38A14.4,14.4,0,0,1,0,121.22V35.87A14.4,14.4,0,0,1,14.38,21.49H25.44a20.24,20.24,0,0,0,16.9-9.06L50.6,0l8.25,12.43a20.24,20.24,0,0,0,16.9,9.06H86.81a14.4,14.4,0,0,1,14.38,14.38v85.35A14.4,14.4,0,0,1,86.81,135.6ZM14.38,23A12.86,12.86,0,0,0,1.53,35.87v85.35a12.86,12.86,0,0,0,12.85,12.85H86.81a12.86,12.86,0,0,0,12.85-12.85V35.87A12.86,12.86,0,0,0,86.81,23H75.75a21.77,21.77,0,0,1-18.17-9.75l-7-10.5-7,10.5A21.77,21.77,0,0,1,25.44,23Z"/>
            <path class="cls-2" d="M28.26,105.79l-1.55,1.75v2.66h-3V93.45h3v10.13h0l4-4.48H34.2l-3.91,4.42,4,6.69H30.94l-2.64-4.42Z"/>
            <path class="cls-2" d="M53.42,103.74v6.47h-3v-5.74c0-1.78-.55-2.89-1.94-2.89s-2.28,1.07-2.28,3.07v5.55h-3v-5.74c0-1.78-.57-2.89-2-2.89s-2.34,1.07-2.34,3.07v5.55H36V99.09h3v1.48h0a4.22,4.22,0,0,1,3.32-1.66,3.5,3.5,0,0,1,3.3,1.78h0a4.76,4.76,0,0,1,3.87-1.78C51.92,98.91,53.42,100.35,53.42,103.74Z"/>
            <path class="cls-2" d="M54.39,111.73l8.7-19.44,2.21,1-8.67,19.44Z"/>
            <path class="cls-2" d="M77.62,103.53v6.67h-3v-5.92c0-2-.75-2.71-2.16-2.71-1.59,0-2.62,1-2.62,3v5.65h-3V93.45h3v7h0a4.73,4.73,0,0,1,3.62-1.53C75.91,98.91,77.62,100.14,77.62,103.53Z"/>
        </g>
    </g>
</svg>